HIERARCHY
ROOT RootJoint
{
    OFFSET   0.000000   0.000000   0.000000
    CHANNELS 6 Xposition Yposition Zposition Xrotation Yrotation Zrotation
    JOINT pelvis_lowerback
    {
        OFFSET   0.000000   0.093605   0.000000
        CHANNELS 3 Xrotation Yrotation Zrotation
        JOINT lowerback_torso
        {
            OFFSET   0.000000   0.100000   0.000000
            CHANNELS 3 Xrotation Yrotation Zrotation
            JOINT torso_head
            {
                OFFSET   0.000000   0.282350   0.000000
                CHANNELS 3 Xrotation Yrotation Zrotation
                End Site
                {
                    OFFSET   0.000000   0.192650   0.000000
                }
            }
            JOINT rTorso_Clavicle
            {
                OFFSET  -0.001000   0.157500   0.000000
                CHANNELS 3 Xrotation Yrotation Zrotation
                JOINT rShoulder
                {
                    OFFSET  -0.117647   0.000000   0.000000
                    CHANNELS 3 Xrotation Yrotation Zrotation
                    JOINT rElbow
                    {
                        OFFSET  -0.245000   0.000000   0.000000
                        CHANNELS 3 Xrotation Yrotation Zrotation
                        JOINT rWrist
                        {
                            OFFSET  -0.240000   0.000000   0.000000
                            CHANNELS 3 Xrotation Yrotation Zrotation
                            End Site
                            {
                                OFFSET  -0.116353  -0.002500   0.000000
                            }
                        }
                    }
                }
            }
            JOINT lTorso_Clavicle
            {
                OFFSET   0.001000   0.157500   0.000000
                CHANNELS 3 Xrotation Yrotation Zrotation
                JOINT lShoulder
                {
                    OFFSET   0.117647   0.000000   0.000000
                    CHANNELS 3 Xrotation Yrotation Zrotation
                    JOINT lElbow
                    {
                        OFFSET   0.245000   0.000000   0.000000
                        CHANNELS 3 Xrotation Yrotation Zrotation
                        JOINT lWrist
                        {
                            OFFSET   0.240000   0.000000   0.000000
                            CHANNELS 3 Xrotation Yrotation Zrotation
                            End Site
                            {
                                OFFSET   0.116353  -0.002500   0.000000
                            }
                        }
                    }
                }
            }
        }
    }
    JOINT rHip
    {
        OFFSET  -0.100000  -0.051395   0.000000
        CHANNELS 3 Xrotation Yrotation Zrotation
        JOINT rKnee
        {
            OFFSET   0.000000  -0.410000   0.000000
            CHANNELS 3 Xrotation Yrotation Zrotation
            JOINT rAnkle
            {
                OFFSET   0.000000  -0.390000   0.000000
                CHANNELS 3 Xrotation Yrotation Zrotation
                JOINT rToeJoint
                {
                    OFFSET   0.000000  -0.050000   0.130000
                    CHANNELS 3 Xrotation Yrotation Zrotation
                    End Site
                    {
                        OFFSET  -0.010000   0.002000   0.060000
                    }
                }
            }
        }
    }
    JOINT lHip
    {
        OFFSET   0.100000  -0.051395   0.000000
        CHANNELS 3 Xrotation Yrotation Zrotation
        JOINT lKnee
        {
            OFFSET   0.000000  -0.410000   0.000000
            CHANNELS 3 Xrotation Yrotation Zrotation
            JOINT lAnkle
            {
                OFFSET   0.000000  -0.390000   0.000000
                CHANNELS 3 Xrotation Yrotation Zrotation
                JOINT lToeJoint
                {
                    OFFSET   0.000000  -0.050000   0.130000
                    CHANNELS 3 Xrotation Yrotation Zrotation
                    End Site
                    {
                        OFFSET   0.010000   0.002000   0.060000
                    }
                }
            }
        }
    }
}
MOTION
Frames: 11
Frame Time:   0.008333
 -1.898926   0.849335   4.618334 -166.871132 -48.321353 -171.801733  19.261082   5.591473  -3.087330   2.542577   0.653548  -1.317305   3.189146  -0.994802   0.109568  -7.063929  21.047887 -15.521272 -18.831507  24.083329  11.942884   0.005300  52.868570  -0.009249   1.232470   4.349316  -2.147309 -10.560577 -12.753406  16.916358 -23.213988  -5.156101  -1.624969   0.007190 -51.852426   0.003713  -2.147503  -5.389068   5.229046  -3.316763  -6.578062  -7.914803  50.846796   0.001527   0.002152 -22.300812  -7.148231  -1.393161 -21.784998  -0.000280  -0.000740 -20.693708   7.637192  -0.147349  49.082581   0.000818   0.001746 -26.269795   9.238166   6.035336   1.833761  -0.000050   0.000081
 -1.898471   0.850887   4.619100 -167.238008 -48.040238 -172.224891  19.218803   5.506982  -3.206099   2.652892   0.558162  -1.359855   3.090903  -0.818209   0.041193  -7.066629  20.578905 -15.585094 -18.399316  23.855150  11.766641   0.009082  53.370627  -0.014120   1.146412   4.421846  -2.282709 -10.519683 -12.535229  16.843828 -22.693166  -5.162601  -1.732025   0.009695 -52.144651   0.005815  -2.110021  -5.593760   5.515794  -3.641786  -6.508570  -7.838530  50.697632   0.001406   0.002009 -21.731520  -7.012676  -1.195398 -21.696344  -0.000344  -0.000734 -20.720005   7.650551  -0.020186  48.657728   0.001034   0.002225 -26.315767   9.434952   5.948878   1.823743  -0.000052   0.000067
 -1.897947   0.852696   4.619874 -167.594562 -47.820118 -172.640422  19.191653   5.398190  -3.310500   2.786706   0.438017  -1.399715   3.004826  -0.649363  -0.023522  -7.060721  20.055385 -15.608364 -17.971550  23.584250  11.614850   0.012344  53.835871  -0.017754   1.067561   4.541108  -2.348527 -10.470462 -12.278673  16.718723 -22.185157  -5.124293  -1.865068   0.011673 -52.409520   0.007427  -2.068234  -5.798498   5.673952  -3.989791  -6.448785  -7.747133  50.581450   0.001240   0.001783 -21.152103  -6.877833  -1.012343 -21.110405  -0.001063  -0.001227 -20.715847   7.658881   0.111590  48.154653   0.001177   0.002511 -26.373270   9.620710   5.865352   1.828322  -0.000036   0.000055
 -1.897354   0.854635   4.620646 -167.947054 -47.651816 -173.053349  19.178325   5.269449  -3.405421   2.932567   0.298758  -1.437646   2.927227  -0.491578  -0.083159  -7.050730  19.516897 -15.605789 -17.559094  23.290996  11.482618   0.014798  54.256585  -0.020145   0.989544   4.603953  -2.368990 -10.420602 -12.012069  16.564671 -21.701650  -5.061018  -2.009210   0.012970 -52.645686   0.008471  -2.033495  -5.943872   5.760822  -4.336281  -6.393128  -7.652371  50.480993   0.001059   0.001549 -20.576148  -6.758113  -0.847564 -20.178264  -0.001911  -0.001629 -20.702684   7.661249   0.248379  47.609933   0.001236   0.002580 -26.440475   9.794272   5.787058   1.831137  -0.000025   0.000046
 -1.896684   0.856031   4.621304 -168.368265 -47.493007 -173.605592  19.117300   5.152784  -3.438549   3.049001   0.165228  -1.447212   2.858256  -0.343509  -0.136744  -7.042779  18.986409 -15.612878 -17.166975  22.994221  11.355790   0.016154  54.637781  -0.021395   0.910817   4.607183  -2.346344 -10.373022 -11.742510  16.424356 -21.244369  -4.985718  -2.146061   0.013459 -52.855550   0.008914  -2.007939  -6.021403   5.790051  -4.720058  -6.348189  -7.469365  50.420441   0.000885   0.001312 -20.056490  -6.627119  -0.687693 -19.537477  -0.002264  -0.001655 -20.630081   7.531648   0.532472  46.445940   0.002878   0.003365 -26.666737   9.931990   5.752713   1.817889  -0.000031   0.000032
 -1.895997   0.857758   4.622085 -168.667585 -47.405503 -173.945979  19.161652   4.987500  -3.550122   3.206954  -0.000746  -1.487058   2.791954  -0.206988  -0.187998  -7.038115  18.465423 -15.583997 -16.800252  22.694075  11.247135   0.017206  54.987970  -0.022057   0.834932   4.568059  -2.349980 -10.328383 -11.494478  16.258187 -20.819030  -4.912133  -2.285764   0.013794 -53.051233   0.009204  -1.983211  -6.088957   5.843626  -5.007039  -6.302363  -7.422699  50.342104   0.000711   0.001116 -19.538831  -6.521758  -0.547456 -18.579643  -0.002465  -0.001369 -20.716899   7.565279   0.670357  46.095365   0.002349   0.002761 -26.658336  10.098982   5.661613   1.832010  -0.000010   0.000045
 -1.895293   0.859601   4.622857 -168.973709 -47.318092 -174.292192  19.203051   4.836205  -3.652606   3.376871  -0.160420  -1.534446   2.735195  -0.078985  -0.238345  -7.026096  17.967674 -15.547145 -16.452271  22.404679  11.156085   0.017824  55.311278  -0.022197   0.760701   4.508497  -2.327747 -10.279684 -11.256662  16.083153 -20.415434  -4.836606  -2.431483   0.013849 -53.231270   0.009281  -1.961618  -6.139535   5.862292  -5.274395  -6.243068  -7.391655  50.268093   0.000554   0.000959 -19.023059  -6.438960  -0.425999 -17.320939  -0.002278  -0.001165 -20.768595   7.578902   0.794612  45.678758   0.001965   0.002361 -26.704511  10.244491   5.592738   1.836333  -0.000003   0.000041
 -1.894566   0.861046   4.623298 -169.673453 -47.291969 -175.004198  18.773125   4.773870  -3.801618   3.634225  -0.267052  -1.447512   2.716216   0.130140  -0.242304  -6.773833  17.211564 -15.520870 -15.985761  21.886374  11.098116   0.018933  55.600245  -0.022684   0.715439   4.844248  -2.459135 -10.115424 -10.955051  15.806863 -19.796099  -4.817101  -2.697080   0.012433 -53.298358   0.008396  -1.908345  -6.485387   6.143032  -6.018532  -6.099603  -7.290871  51.101577   0.001096   0.000605 -18.346461  -6.241333  -0.141417 -16.057158  -0.003165   0.001155 -21.200446   7.551793   1.048962  45.363180   0.001704   0.001842 -26.343262  10.557796   5.339345   1.707691  -0.000214  -0.000295
 -1.893957   0.862324   4.623424 -170.292861 -47.327025 -175.684615  18.354470   4.683068  -3.941366   3.889198  -0.407628  -1.353127   2.686425   0.334200  -0.240975  -6.500618  16.381540 -15.403064 -15.502354  21.302857  11.092984   0.019134  55.836218  -0.022165   0.670890   5.071936  -2.450405  -9.941178 -10.612983  15.447545 -19.187660  -4.742481  -3.004460   0.010831 -53.340982   0.007301  -1.858562  -6.764674   6.271270  -6.663996  -5.976020  -7.178486  52.075468   0.002123   0.000509 -17.708108  -6.051858   0.122910 -14.906572  -0.003003   0.003343 -21.602781   7.504646   1.344104  45.106302   0.001443   0.001282 -25.985011  10.851739   5.099070   1.622244  -0.000283  -0.000489
 -1.893410   0.863455   4.623345 -170.865483 -47.375529 -176.338725  17.955455   4.574208  -4.086105   4.138344  -0.568538  -1.274671   2.652529   0.525495  -0.240509  -6.225102  15.532719 -15.230053 -15.025119  20.697414  11.121567   0.018657  56.033174  -0.021054   0.621529   5.167775  -2.352867  -9.771821 -10.246949  15.042130 -18.604635  -4.628093  -3.327603   0.009129 -53.363388   0.006126  -1.821870  -6.945419   6.312455  -7.225683  -5.858978  -7.080037  53.046496   0.003229   0.000352 -17.111395  -5.872445   0.367402 -13.857030  -0.002271   0.004875 -21.985081   7.450072   1.654409  44.891819   0.001221   0.000824 -25.642297  11.125402   4.872695   1.547151  -0.000307  -0.000613
 -1.892882   0.864453   4.623126 -171.407167 -47.411211 -176.972945  17.581756   4.458241  -4.241234   4.379300  -0.736606  -1.217391   2.618191   0.703972  -0.241695  -5.956273  14.693537 -15.028646 -14.564327  20.093724  11.169761   0.017746  56.201631  -0.019644   0.569330   5.169331  -2.205614  -9.609477  -9.872001  14.616245 -18.050621  -4.490104  -3.653500   0.007457 -53.370954   0.004988  -1.796659  -7.044180   6.306286  -7.725103  -5.744873  -7.002265  53.976010   0.004166  -0.000007 -16.554518  -5.703014   0.593522 -12.896393  -0.001301   0.005652 -22.355496   7.389078   1.971022  44.713770   0.001047   0.000503 -25.315632  11.379928   4.659551   1.479348  -0.000306  -0.000675
